<svg width="430" height="38" viewBox="0 0 430 38" fill="none" xmlns="http://www.w3.org/2000/svg">
<g clip-path="url(#clip0_3_2)">
<path d="M7.992 3.73599V30.76H20.952L20.136 37H0.119995V3.73599H7.992Z" fill="#141414"/>
<path d="M45.3862 37H38.8102L38.4742 33.784C36.6182 36.472 34.0422 37.816 30.7462 37.816C28.4102 37.816 26.6342 37.112 25.4182 35.704C24.2342 34.296 23.6422 32.328 23.6422 29.8V11.512H31.2262V28.84C31.2262 30.088 31.4182 30.968 31.8022 31.48C32.2182 31.96 32.8422 32.2 33.6742 32.2C35.2742 32.2 36.6502 31.208 37.8022 29.224V11.512H45.3862V37Z" fill="#141414"/>
<path d="M71.607 29.608C71.607 30.568 71.735 31.272 71.991 31.72C72.279 32.168 72.727 32.504 73.335 32.728L71.751 37.672C70.183 37.544 68.903 37.208 67.911 36.664C66.919 36.088 66.151 35.192 65.607 33.976C63.943 36.536 61.383 37.816 57.927 37.816C55.399 37.816 53.383 37.08 51.879 35.608C50.375 34.136 49.623 32.216 49.623 29.848C49.623 27.064 50.647 24.936 52.695 23.464C54.743 21.992 57.703 21.256 61.575 21.256H64.167V20.152C64.167 18.648 63.847 17.624 63.207 17.08C62.567 16.504 61.447 16.216 59.847 16.216C59.015 16.216 58.007 16.344 56.823 16.6C55.639 16.824 54.423 17.144 53.175 17.56L51.447 12.568C53.047 11.96 54.679 11.496 56.343 11.176C58.039 10.856 59.607 10.696 61.047 10.696C64.695 10.696 67.367 11.448 69.063 12.952C70.759 14.456 71.607 16.712 71.607 19.72V29.608ZM60.135 32.392C61.863 32.392 63.207 31.576 64.167 29.944V25.432H62.295C60.567 25.432 59.271 25.736 58.407 26.344C57.575 26.952 57.159 27.896 57.159 29.176C57.159 30.2 57.415 31 57.927 31.576C58.471 32.12 59.207 32.392 60.135 32.392Z" fill="#141414"/>
<path d="M92.5759 10.696C94.7839 10.696 96.5119 11.368 97.7599 12.712C99.0079 14.056 99.6319 15.944 99.6319 18.376V37H92.0479V19.672C92.0479 18.392 91.8399 17.512 91.4239 17.032C91.0399 16.52 90.4479 16.264 89.6479 16.264C88.1119 16.264 86.6399 17.368 85.2319 19.576V37H77.6479V11.512H84.2719L84.7999 14.536C85.8879 13.256 87.0559 12.296 88.3039 11.656C89.5839 11.016 91.0079 10.696 92.5759 10.696Z" fill="#141414"/>
<path d="M125.607 29.608C125.607 30.568 125.735 31.272 125.991 31.72C126.279 32.168 126.727 32.504 127.335 32.728L125.751 37.672C124.183 37.544 122.903 37.208 121.911 36.664C120.919 36.088 120.151 35.192 119.607 33.976C117.943 36.536 115.383 37.816 111.927 37.816C109.399 37.816 107.383 37.08 105.879 35.608C104.375 34.136 103.623 32.216 103.623 29.848C103.623 27.064 104.647 24.936 106.695 23.464C108.743 21.992 111.703 21.256 115.575 21.256H118.167V20.152C118.167 18.648 117.847 17.624 117.207 17.08C116.567 16.504 115.447 16.216 113.847 16.216C113.015 16.216 112.007 16.344 110.823 16.6C109.639 16.824 108.423 17.144 107.175 17.56L105.447 12.568C107.047 11.96 108.679 11.496 110.343 11.176C112.039 10.856 113.607 10.696 115.047 10.696C118.695 10.696 121.367 11.448 123.063 12.952C124.759 14.456 125.607 16.712 125.607 19.72V29.608ZM114.135 32.392C115.863 32.392 117.207 31.576 118.167 29.944V25.432H116.295C114.567 25.432 113.271 25.736 112.407 26.344C111.575 26.952 111.159 27.896 111.159 29.176C111.159 30.2 111.415 31 111.927 31.576C112.471 32.12 113.207 32.392 114.135 32.392Z" fill="#141414"/>
<path d="M153.886 2.91998C156.382 2.91998 158.543 3.27198 160.367 3.97599C162.223 4.67999 163.902 5.75199 165.406 7.19198L161.758 11.464C159.486 9.60799 157.054 8.67998 154.462 8.67998C153.086 8.67998 151.999 8.96798 151.199 9.54398C150.399 10.088 149.998 10.888 149.998 11.944C149.998 12.68 150.174 13.288 150.526 13.768C150.878 14.216 151.502 14.648 152.398 15.064C153.294 15.48 154.638 15.976 156.43 16.552C159.822 17.64 162.319 18.984 163.919 20.584C165.519 22.152 166.318 24.392 166.318 27.304C166.318 29.384 165.79 31.224 164.734 32.824C163.678 34.392 162.158 35.624 160.174 36.52C158.19 37.384 155.839 37.816 153.118 37.816C150.398 37.816 147.982 37.384 145.87 36.52C143.79 35.656 141.998 34.504 140.494 33.064L144.479 28.696C145.759 29.784 147.07 30.6 148.414 31.144C149.79 31.688 151.278 31.96 152.878 31.96C154.51 31.96 155.79 31.608 156.718 30.904C157.678 30.168 158.158 29.16 158.158 27.88C158.158 27.048 157.982 26.36 157.63 25.816C157.278 25.24 156.67 24.728 155.806 24.28C154.942 23.832 153.695 23.352 152.062 22.84C148.383 21.72 145.758 20.344 144.19 18.712C142.654 17.08 141.886 15.016 141.886 12.52C141.886 10.6 142.399 8.91998 143.423 7.47999C144.447 6.00799 145.87 4.88798 147.694 4.11998C149.518 3.31998 151.582 2.91998 153.886 2.91998Z" fill="#141414"/>
<path d="M186.491 35.8C185.563 36.44 184.475 36.936 183.227 37.288C182.011 37.64 180.795 37.816 179.579 37.816C174.011 37.784 171.227 34.712 171.227 28.6V16.792H167.627V11.512H171.227V5.99199L178.811 5.12799V11.512H184.667L183.851 16.792H178.811V28.504C178.811 29.688 179.003 30.536 179.387 31.048C179.771 31.56 180.379 31.816 181.211 31.816C182.075 31.816 182.987 31.544 183.947 31L186.491 35.8Z" fill="#141414"/>
<path d="M210.403 23.752C210.403 24.808 210.355 25.72 210.259 26.488H194.467C194.723 28.632 195.331 30.136 196.291 31C197.251 31.864 198.579 32.296 200.275 32.296C201.299 32.296 202.291 32.12 203.251 31.768C204.211 31.384 205.251 30.808 206.371 30.04L209.491 34.264C206.515 36.632 203.203 37.816 199.555 37.816C195.427 37.816 192.259 36.6 190.051 34.168C187.843 31.736 186.739 28.472 186.739 24.376C186.739 21.784 187.203 19.464 188.131 17.416C189.059 15.336 190.419 13.704 192.211 12.52C194.003 11.304 196.147 10.696 198.643 10.696C202.323 10.696 205.203 11.848 207.283 14.152C209.363 16.456 210.403 19.656 210.403 23.752ZM202.963 21.592C202.899 17.688 201.523 15.736 198.835 15.736C197.523 15.736 196.499 16.216 195.763 17.176C195.059 18.136 194.627 19.72 194.467 21.928H202.963V21.592Z" fill="#141414"/>
<path d="M221.431 37.816C219.223 37.816 217.495 37.192 216.247 35.944C215.031 34.664 214.423 32.856 214.423 30.52V1.38399L222.007 0.567993V30.232C222.007 31.288 222.439 31.816 223.303 31.816C223.751 31.816 224.167 31.736 224.551 31.576L226.039 36.952C224.663 37.528 223.127 37.816 221.431 37.816Z" fill="#141414"/>
<path d="M248.935 29.608C248.935 30.568 249.063 31.272 249.319 31.72C249.607 32.168 250.055 32.504 250.663 32.728L249.079 37.672C247.511 37.544 246.231 37.208 245.239 36.664C244.247 36.088 243.479 35.192 242.935 33.976C241.271 36.536 238.711 37.816 235.255 37.816C232.727 37.816 230.711 37.08 229.207 35.608C227.703 34.136 226.951 32.216 226.951 29.848C226.951 27.064 227.975 24.936 230.023 23.464C232.071 21.992 235.031 21.256 238.903 21.256H241.495V20.152C241.495 18.648 241.175 17.624 240.535 17.08C239.895 16.504 238.775 16.216 237.175 16.216C236.343 16.216 235.335 16.344 234.151 16.6C232.967 16.824 231.751 17.144 230.503 17.56L228.775 12.568C230.375 11.96 232.007 11.496 233.671 11.176C235.367 10.856 236.935 10.696 238.375 10.696C242.023 10.696 244.695 11.448 246.391 12.952C248.087 14.456 248.935 16.712 248.935 19.72V29.608ZM237.463 32.392C239.191 32.392 240.535 31.576 241.495 29.944V25.432H239.623C237.895 25.432 236.599 25.736 235.735 26.344C234.903 26.952 234.487 27.896 234.487 29.176C234.487 30.2 234.743 31 235.255 31.576C235.799 32.12 236.535 32.392 237.463 32.392Z" fill="#141414"/>
<path d="M284.031 37L282.303 29.848H272.607L270.927 37H262.767L272.799 3.73599H282.351L292.383 37H284.031ZM273.951 24.136H280.959L277.455 9.44799L273.951 24.136Z" fill="#141414"/>
<path d="M308.503 10.792C309.431 10.792 310.279 10.904 311.047 11.128L309.847 18.472C308.887 18.248 308.119 18.136 307.543 18.136C306.039 18.136 304.887 18.664 304.087 19.72C303.319 20.744 302.711 22.296 302.263 24.376V37H294.679V11.512H301.303L301.927 16.456C302.503 14.696 303.367 13.32 304.519 12.328C305.703 11.304 307.031 10.792 308.503 10.792Z" fill="#141414"/>
<path d="M332.513 29.608C332.513 30.568 332.641 31.272 332.897 31.72C333.185 32.168 333.633 32.504 334.241 32.728L332.657 37.672C331.089 37.544 329.809 37.208 328.817 36.664C327.825 36.088 327.057 35.192 326.513 33.976C324.849 36.536 322.289 37.816 318.833 37.816C316.305 37.816 314.289 37.08 312.785 35.608C311.281 34.136 310.529 32.216 310.529 29.848C310.529 27.064 311.553 24.936 313.601 23.464C315.649 21.992 318.609 21.256 322.481 21.256H325.073V20.152C325.073 18.648 324.753 17.624 324.113 17.08C323.473 16.504 322.353 16.216 320.753 16.216C319.921 16.216 318.913 16.344 317.729 16.6C316.545 16.824 315.329 17.144 314.081 17.56L312.353 12.568C313.953 11.96 315.585 11.496 317.249 11.176C318.945 10.856 320.513 10.696 321.953 10.696C325.601 10.696 328.273 11.448 329.969 12.952C331.665 14.456 332.513 16.712 332.513 19.72V29.608ZM321.041 32.392C322.769 32.392 324.113 31.576 325.073 29.944V25.432H323.201C321.473 25.432 320.177 25.736 319.313 26.344C318.481 26.952 318.065 27.896 318.065 29.176C318.065 30.2 318.321 31 318.833 31.576C319.377 32.12 320.113 32.392 321.041 32.392Z" fill="#141414"/>
<path d="M353.482 10.696C355.69 10.696 357.418 11.368 358.666 12.712C359.914 14.056 360.538 15.944 360.538 18.376V37H352.954V19.672C352.954 18.392 352.746 17.512 352.33 17.032C351.946 16.52 351.354 16.264 350.554 16.264C349.018 16.264 347.546 17.368 346.138 19.576V37H338.554V11.512H345.178L345.706 14.536C346.794 13.256 347.962 12.296 349.21 11.656C350.49 11.016 351.914 10.696 353.482 10.696Z" fill="#141414"/>
<path d="M382.241 35.8C381.313 36.44 380.225 36.936 378.977 37.288C377.761 37.64 376.545 37.816 375.329 37.816C369.761 37.784 366.977 34.712 366.977 28.6V16.792H363.377V11.512H366.977V5.99199L374.561 5.12799V11.512H380.417L379.601 16.792H374.561V28.504C374.561 29.688 374.753 30.536 375.137 31.048C375.521 31.56 376.129 31.816 376.961 31.816C377.825 31.816 378.737 31.544 379.697 31L382.241 35.8Z" fill="#141414"/>
<path d="M406.153 23.752C406.153 24.808 406.105 25.72 406.009 26.488H390.217C390.473 28.632 391.081 30.136 392.041 31C393.001 31.864 394.329 32.296 396.025 32.296C397.049 32.296 398.041 32.12 399.001 31.768C399.961 31.384 401.001 30.808 402.121 30.04L405.241 34.264C402.265 36.632 398.953 37.816 395.305 37.816C391.177 37.816 388.009 36.6 385.801 34.168C383.593 31.736 382.489 28.472 382.489 24.376C382.489 21.784 382.953 19.464 383.881 17.416C384.809 15.336 386.169 13.704 387.961 12.52C389.753 11.304 391.897 10.696 394.393 10.696C398.073 10.696 400.953 11.848 403.033 14.152C405.113 16.456 406.153 19.656 406.153 23.752ZM398.713 21.592C398.649 17.688 397.273 15.736 394.585 15.736C393.273 15.736 392.249 16.216 391.513 17.176C390.809 18.136 390.377 19.72 390.217 21.928H398.713V21.592Z" fill="#141414"/>
<path d="M419.389 10.696C421.213 10.696 422.925 10.968 424.525 11.512C426.125 12.056 427.534 12.824 428.75 13.816L425.965 18.088C423.885 16.776 421.789 16.12 419.677 16.12C418.685 16.12 417.918 16.296 417.374 16.648C416.862 16.968 416.605 17.432 416.605 18.04C416.605 18.52 416.717 18.92 416.941 19.24C417.197 19.528 417.694 19.832 418.43 20.152C419.166 20.472 420.301 20.856 421.837 21.304C424.493 22.072 426.461 23.08 427.741 24.328C429.053 25.544 429.71 27.24 429.71 29.416C429.71 31.144 429.213 32.648 428.221 33.928C427.229 35.176 425.87 36.136 424.142 36.808C422.414 37.48 420.493 37.816 418.382 37.816C416.238 37.816 414.238 37.48 412.382 36.808C410.558 36.136 409.005 35.208 407.725 34.024L411.422 29.896C413.566 31.56 415.821 32.392 418.189 32.392C419.341 32.392 420.238 32.184 420.878 31.768C421.55 31.352 421.885 30.76 421.885 29.992C421.885 29.384 421.757 28.904 421.501 28.552C421.245 28.2 420.749 27.88 420.013 27.592C419.277 27.272 418.109 26.888 416.509 26.44C413.981 25.704 412.093 24.68 410.845 23.368C409.597 22.056 408.973 20.424 408.973 18.472C408.973 17 409.389 15.688 410.221 14.536C411.085 13.352 412.302 12.424 413.87 11.752C415.47 11.048 417.309 10.696 419.389 10.696Z" fill="#141414"/>
</g>
<defs>
<clipPath id="clip0_3_2">
<rect width="430" height="38" fill="white"/>
</clipPath>
</defs>
</svg>
